<?xml version="1.0" encoding="UTF-8" standalone="no"?><!-- Generator: Gravit.io --><svg xmlns="http://www.w3.org/2000/svg" xmlns:xlink="http://www.w3.org/1999/xlink" style="isolation:isolate" viewBox="0 0 48 48" width="48pt" height="48pt"><defs><clipPath id="_clipPath_Bf9DpMs5KXNlDhLwftrL29XwQUbObxhC"><rect width="48" height="48"/></clipPath></defs><g clip-path="url(#_clipPath_Bf9DpMs5KXNlDhLwftrL29XwQUbObxhC)"><defs><linearGradient id="_lgradient_10" x1="0.5000000000000001" y1="1" x2="0.49999999999999994" y2="0"><stop offset="0%" style="stop-color:#FFFFFF"/><stop offset="100%" style="stop-color:#000000"/></linearGradient><linearGradient id="_lgradient_11" x1="0.5000000000000001" y1="1" x2="0.49999999999999994" y2="0"><stop offset="0%" style="stop-color:#FFFFFF"/><stop offset="100%" style="stop-color:#000000"/></linearGradient></defs><g style="mix-blend-mode:normal;" opacity="0.15"><path d="M 5.067 42.625 L 42.933 42.625 C 43.522 42.625 44 42.933 44 43.312 L 44 43.312 C 44 43.692 43.522 44 42.933 44 L 5.067 44 C 4.478 44 4 43.692 4 43.312 L 4 43.312 C 4 42.933 4.478 42.625 5.067 42.625 Z" style="stroke:none;fill:url(#_lgradient_11);stroke-miterlimit:10;"/></g><path d="M 6.133 11 L 41.867 11 C 43.044 11 44 11.956 44 13.133 L 44 40.492 C 44 41.669 43.044 42.625 41.867 42.625 L 6.133 42.625 C 4.956 42.625 4 41.669 4 40.492 L 4 13.133 C 4 11.956 4.956 11 6.133 11 Z" style="stroke:none;fill:#EBEBEB;stroke-miterlimit:10;"/><clipPath id="_clipPath_acXujwNdSO7tJHHfXaeoKRVtkjPLXAQa"><path d="M 6.133 11 L 41.867 11 C 43.044 11 44 11.956 44 13.133 L 44 40.492 C 44 41.669 43.044 42.625 41.867 42.625 L 6.133 42.625 C 4.956 42.625 4 41.669 4 40.492 L 4 13.133 C 4 11.956 4.956 11 6.133 11 Z" style="stroke:none;fill:#EBEBEB;stroke-miterlimit:10;"/></clipPath><g clip-path="url(#_clipPath_acXujwNdSO7tJHHfXaeoKRVtkjPLXAQa)"><g><linearGradient id="_lgradient_12" x1="-0.09999999999999964" y1="-44.31666666666666" x2="0.6500000000000004" y2="-44.31666666666666" gradientTransform="matrix(40,0,0,16.5,4,26.362)" gradientUnits="userSpaceOnUse"><stop offset="0%" stop-opacity="1" style="stop-color:rgb(197,206,210)"/><stop offset="100%" stop-opacity="1" style="stop-color:rgb(255,255,255)"/></linearGradient><path d=" M 4 42.862 L 20 26.362 L 28 26.362 L 44 42.862 L 4 42.862 Z " fill-rule="evenodd" fill="url(#_lgradient_12)"/><path d=" M 44 44 L 28 27.5 L 44 11 L 44 44 Z " fill-rule="evenodd" fill="rgb(237,239,241)"/><linearGradient id="_lgradient_13" x1="-0.25" y1="1.1666666666666643" x2="0.22735413540803312" y2="0.339889304139954" gradientTransform="matrix(16,0,0,33,4,11)" gradientUnits="userSpaceOnUse"><stop offset="0%" stop-opacity="1" style="stop-color:rgb(209,214,217)"/><stop offset="100%" stop-opacity="1" style="stop-color:rgb(255,255,255)"/></linearGradient><path d=" M 4 44 L 20 27.5 L 4 11 L 4 44 Z " fill-rule="evenodd" fill="url(#_lgradient_13)"/></g><g><path d=" M 4 11 L 24 31.625 L 44 11 L 45 11 L 4 11 Z " fill="rgb(176,182,189)"/></g></g></g></svg>